<svg width="374" height="12" viewBox="0 0 374 12" fill="none" xmlns="http://www.w3.org/2000/svg">
    <rect x="219.322" y="11.1055" width="1.45246" height="6.29401" transform="rotate(180 219.322 11.1055)" fill="#261C4A"/>
    <rect x="297.271" y="11.1055" width="1.45246" height="6.29401" transform="rotate(180 297.271 11.1055)" fill="#261C4A"/>
    <rect x="375.22" y="11.1055" width="1.45246" height="6.29401" transform="rotate(180 375.22 11.1055)" fill="#261C4A"/>
    <rect x="141.857" y="11.1055" width="1.45246" height="6.29401" transform="rotate(180 141.857 11.1055)" fill="#261C4A"/>
    <rect x="63.9082" y="11.1055" width="1.45246" height="6.29401" transform="rotate(180 63.9082 11.1055)" fill="#261C4A"/>
    <rect x="31.9541" y="11.1055" width="0.96831" height="2.90493" transform="rotate(180 31.9541 11.1055)" fill="#261C4A"/>
    <rect x="250.308" y="11.1055" width="0.96831" height="2.90493" transform="rotate(180 250.308 11.1055)" fill="#261C4A"/>
    <rect x="328.257" y="11.1055" width="0.96831" height="2.90493" transform="rotate(180 328.257 11.1055)" fill="#261C4A"/>
    <rect x="359.243" y="11.1055" width="0.96831" height="2.90493" transform="rotate(180 359.243 11.1055)" fill="#261C4A"/>
    <rect x="234.814" y="11.1055" width="0.96831" height="2.90493" transform="rotate(180 234.814 11.1055)" fill="#261C4A"/>
    <rect x="312.764" y="11.1055" width="0.96831" height="2.90493" transform="rotate(180 312.764 11.1055)" fill="#261C4A"/>
    <rect x="343.75" y="11.1055" width="0.96831" height="2.90493" transform="rotate(180 343.75 11.1055)" fill="#261C4A"/>
    <rect x="187.852" y="11.1055" width="0.96831" height="2.90493" transform="rotate(180 187.852 11.1055)" fill="#261C4A"/>
    <rect x="265.801" y="11.1055" width="0.96831" height="2.90493" transform="rotate(180 265.801 11.1055)" fill="#261C4A"/>
    <rect x="109.903" y="11.1055" width="0.96831" height="2.90493" transform="rotate(180 109.903 11.1055)" fill="#261C4A"/>
    <rect opacity="0.5" x="203.345" y="11.1055" width="0.96831" height="2.90493" transform="rotate(180 203.345 11.1055)" fill="#261C4A"/>
    <rect x="281.294" y="11.1055" width="0.96831" height="2.90493" transform="rotate(180 281.294 11.1055)" fill="#261C4A"/>
    <rect x="125.396" y="11.1055" width="0.96831" height="2.90493" transform="rotate(180 125.396 11.1055)" fill="#261C4A"/>
    <rect x="47.4473" y="11.1055" width="0.96831" height="2.90493" transform="rotate(180 47.4473 11.1055)" fill="#261C4A"/>
    <rect x="172.359" y="11.1055" width="0.96831" height="2.90493" transform="rotate(180 172.359 11.1055)" fill="#261C4A"/>
    <rect x="94.4102" y="11.1055" width="0.96831" height="2.90493" transform="rotate(180 94.4102 11.1055)" fill="#261C4A"/>
    <rect x="16.4609" y="11.1055" width="0.96831" height="2.90493" transform="rotate(180 16.4609 11.1055)" fill="#261C4A"/>
    <rect x="156.866" y="11.1055" width="0.96831" height="2.90493" transform="rotate(180 156.866 11.1055)" fill="#261C4A"/>
    <rect x="78.917" y="11.1055" width="0.96831" height="2.90493" transform="rotate(180 78.917 11.1055)" fill="#261C4A"/>
    <rect x="0.967773" y="11.1055" width="0.96831" height="2.90493" transform="rotate(180 0.967773 11.1055)" fill="#261C4A"/>
    <rect x="10.0088" y="0.597168" width="385.062" height="0.526761" fill="#261C4A"/>
</svg>
