<svg width="11" height="220" viewBox="0 0 11 220" fill="none" xmlns="http://www.w3.org/2000/svg">
    <rect y="214.175" width="1.45246" height="6.29401" transform="rotate(-90 0 214.175)" fill="#261C4A"/>
    <rect y="136.71" width="1.45246" height="6.29401" transform="rotate(-90 0 136.71)" fill="#261C4A"/>
    <rect y="58.7607" width="1.45246" height="6.29401" transform="rotate(-90 0 58.7607)" fill="#261C4A"/>
    <rect y="26.8066" width="0.96831" height="2.90493" transform="rotate(-90 0 26.8066)" fill="#261C4A"/>
    <rect y="182.705" width="0.96831" height="2.90493" transform="rotate(-90 0 182.705)" fill="#261C4A"/>
    <rect y="104.756" width="0.96831" height="2.90493" transform="rotate(-90 0 104.756)" fill="#261C4A"/>
    <rect y="198.198" width="0.96831" height="2.90493" transform="rotate(-90 0 198.198)" fill="#261C4A"/>
    <rect y="120.249" width="0.96831" height="2.90493" transform="rotate(-90 0 120.249)" fill="#261C4A"/>
    <rect y="42.2996" width="0.96831" height="2.90493" transform="rotate(-90 0 42.2996)" fill="#261C4A"/>
    <rect y="167.211" width="0.96831" height="2.90493" transform="rotate(-90 0 167.211)" fill="#261C4A"/>
    <rect y="89.2627" width="0.96831" height="2.90493" transform="rotate(-90 0 89.2627)" fill="#261C4A"/>
    <rect y="11.3137" width="0.96831" height="2.90493" transform="rotate(-90 0 11.3137)" fill="#261C4A"/>
    <rect y="151.719" width="0.96831" height="2.90493" transform="rotate(-90 0 151.719)" fill="#261C4A"/>
    <rect y="73.7695" width="0.96831" height="2.90493" transform="rotate(-90 0 73.7695)" fill="#261C4A"/>
    <rect x="10.5352" y="-21.0706" width="240.203" height="0.526761" transform="rotate(90 10.5352 -21.0706)" fill="#261C4A"/>
</svg>
