<svg width="64" height="64" viewBox="0 0 64 64" fill="none" xmlns="http://www.w3.org/2000/svg">
    <path d="M62.2348 35.9498C62.8873 36.0314 63.3524 36.6272 63.2461 37.2761C62.0718 44.4474 58.4466 51.0048 52.9695 55.8177C47.4924 60.6306 40.5233 63.3827 33.2605 63.6252C32.6033 63.6472 32.0723 63.1094 32.0752 62.4518V62.4518C32.0781 61.7943 32.6139 61.2661 33.271 61.2421C39.9514 60.9983 46.3579 58.4575 51.3976 54.0289C56.4374 49.6004 59.7808 43.5737 60.8814 36.9801C60.9897 36.3315 61.5823 35.8681 62.2348 35.9498V35.9498Z" fill="#944EF5"/>
    <path d="M61.1973 33.3124C61.1973 32.6325 61.7485 32.0813 62.4284 32.0813V32.0813C63.1083 32.0813 63.6595 32.6325 63.6595 33.3124V33.3124C63.6595 33.9923 63.1083 34.5435 62.4284 34.5435V34.5435C61.7485 34.5435 61.1973 33.9923 61.1973 33.3124V33.3124Z" fill="#944EF5"/>
    <path d="M2.1851 28.4367C1.53261 28.3551 1.06756 27.7593 1.17382 27.1104C2.3481 19.9391 5.97331 13.3816 11.4504 8.56875C16.9275 3.75586 23.8967 1.0038 31.1594 0.761244C31.8166 0.739295 32.3476 1.27708 32.3447 1.93465V1.93465C32.3418 2.59221 31.806 3.12036 31.1489 3.14434C24.4685 3.38818 18.062 5.92896 13.0223 10.3575C7.98252 14.7861 4.63917 20.8128 3.53849 27.4063C3.43021 28.0549 2.83758 28.5184 2.1851 28.4367V28.4367Z" fill="#944EF5"/>
    <path d="M3.22266 31.0741C3.22266 31.754 2.67146 32.3052 1.99154 32.3052V32.3052C1.31161 32.3052 0.760414 31.754 0.760414 31.0741V31.0741C0.760414 30.3941 1.31161 29.8429 1.99154 29.8429V29.8429C2.67146 29.8429 3.22266 30.3941 3.22266 31.0741V31.0741Z" fill="#944EF5"/>
</svg>
