<svg width="35" height="25" viewBox="0 0 35 25" fill="none" xmlns="http://www.w3.org/2000/svg">
    <path d="M17.1258 5.89888V12.1146V17.9004C17.1258 19.8783 15.5224 21.4818 13.5444 21.4818H11.6792C9.70119 21.4818 8.09772 19.8783 8.09772 17.9004V12.1146V5.89888C8.09772 3.40584 10.1187 1.38483 12.6118 1.38483C15.1048 1.38483 17.1258 3.40584 17.1258 5.89888Z" stroke="#944EF5" stroke-width="2.2384"/>
    <path d="M26.5477 5.89888V12.1146V17.9004C26.5477 19.8783 24.9442 21.4818 22.9663 21.4818H21.101C19.1231 21.4818 17.5196 19.8783 17.5196 17.9004V12.1146V5.89888C17.5196 3.40584 19.5406 1.38483 22.0336 1.38483C24.5267 1.38483 26.5477 3.40584 26.5477 5.89888Z" stroke="#944EF5" stroke-width="2.2384"/>
    <path d="M27.666 18.8455H32.5912C33.5099 18.8455 34.2546 18.1007 34.2546 17.182V14.6403C34.2546 14.102 33.9942 13.597 33.5556 13.285L27.666 9.09432V18.8455Z" fill="#944EF5"/>
    <path d="M6.97852 18.8455H2.05334C1.13465 18.8455 0.389909 18.1007 0.389909 17.182V14.6403C0.389909 14.102 0.650376 13.597 1.08896 13.285L6.97852 9.09432V18.8455Z" fill="#944EF5"/>
    <rect x="16.9932" y="6.77197" width="1.71304" height="8.82873" transform="rotate(90 16.9932 6.77197)" fill="#944EF5"/>
    <rect x="26.415" y="6.77197" width="1.71304" height="8.82873" transform="rotate(90 26.415 6.77197)" fill="#944EF5"/>
    <path d="M18.7061 23.4392C18.7061 23.9587 19.1272 24.3799 19.6467 24.3799H24.2881C24.8076 24.3799 25.2288 23.9587 25.2288 23.4392V21.7444H18.7061V23.4392Z" fill="#944EF5"/>
    <path d="M9.35059 23.4392C9.35059 23.9587 9.77174 24.3799 10.2913 24.3799H14.9326C15.4521 24.3799 15.8733 23.9587 15.8733 23.4392V21.7444H9.35059V23.4392Z" fill="#944EF5"/>
</svg>
