<svg width="45" height="53" viewBox="0 0 45 53" fill="none" xmlns="http://www.w3.org/2000/svg">
    <path d="M3.10421 10.2357C2.60226 9.81645 2.53326 9.06765 2.97484 8.58524C6.99649 4.1918 12.4114 1.29799 18.3246 0.407049C24.2378 -0.483889 30.265 0.685954 35.4026 3.69937C35.9667 4.03025 36.1214 4.76614 35.7653 5.31467V5.31467C35.4092 5.86321 34.6771 6.01636 34.1115 5.68804C29.4608 2.98853 24.018 1.94431 18.6775 2.74897C13.3369 3.55362 8.44342 6.1552 4.79461 10.1052C4.35084 10.5856 3.60616 10.6549 3.10421 10.2357V10.2357Z" fill="#944EF5"/>
    <path d="M2.84766 12.3153C2.84766 12.9952 2.29646 13.5464 1.61654 13.5464V13.5464C0.936606 13.5464 0.385414 12.9952 0.385414 12.3153V12.3153C0.385414 11.6353 0.936606 11.0841 1.61654 11.0841V11.0841C2.29646 11.0841 2.84766 11.6353 2.84766 12.3153V12.3153Z" fill="#944EF5"/>
    <path d="M41.3157 42.151C41.8177 42.5703 41.8867 43.3191 41.4451 43.8015C37.4234 48.1949 32.0085 51.0887 26.0953 51.9797C20.1821 52.8706 14.1549 51.7008 9.0173 48.6874C8.45318 48.3565 8.29848 47.6206 8.65462 47.072V47.072C9.01075 46.5235 9.7428 46.3704 10.3084 46.6987C14.9591 49.3982 20.4019 50.4424 25.7425 49.6378C31.083 48.8331 35.9765 46.2315 39.6253 42.2815C40.0691 41.8011 40.8138 41.7318 41.3157 42.151V42.151Z" fill="#944EF5"/>
    <path d="M41.5723 40.0715C41.5723 39.3915 42.1235 38.8403 42.8034 38.8403V38.8403C43.4833 38.8403 44.0345 39.3915 44.0345 40.0715V40.0715C44.0345 40.7514 43.4833 41.3026 42.8034 41.3026V41.3026C42.1235 41.3026 41.5723 40.7514 41.5723 40.0715V40.0715Z" fill="#944EF5"/>
</svg>
