<svg width="112" height="13" viewBox="0 0 112 13" fill="none" xmlns="http://www.w3.org/2000/svg">
<path d="M112 0.00183105L109.508 3.24768H105.064V12.4874H101.216V3.24768H88.6764V4.74097H96.3175V7.57979H88.6764V9.2779H96.3175V12.4874H84.8081V0.00183105H112Z" fill="white"/>
<path d="M13.4797 12.4888H0V0.000610352H3.85023V9.27927H10.9878L13.4797 12.4888Z" fill="#8662E1"/>
<path d="M29.3708 7.03802C29.3708 10.8086 26.7864 12.6939 21.6178 12.6939C20.3198 12.7131 19.0234 12.5942 17.7503 12.3392C16.8024 12.1559 15.8973 11.7949 15.0825 11.2752C14.4159 10.8414 13.8817 10.2309 13.5392 9.5113C13.1952 8.73346 13.027 7.88885 13.0464 7.03803V0.000854492H16.8765V7.03801C16.8653 7.4321 16.9285 7.82476 17.0626 8.19528C17.1997 8.52138 17.4464 8.78889 17.7597 8.95127C18.2103 9.17696 18.699 9.31623 19.2006 9.36192C20.003 9.4528 20.8103 9.49334 21.6178 9.48332C22.2401 9.49237 22.8621 9.44863 23.4771 9.35257C23.8988 9.29308 24.3039 9.14695 24.6669 8.92331C24.9525 8.73871 25.176 8.472 25.3084 8.15795C25.4468 7.80134 25.5132 7.42064 25.5036 7.03803V0.000854492H29.3708L29.3708 7.03802Z" fill="#8662E1"/>
<path d="M36.0445 4.09928C36.3869 3.81974 36.7784 3.60695 37.1988 3.47188C37.6667 3.32037 38.1558 3.2451 38.6475 3.24893H44.8889V0.000474293H38.6475C37.6334 -0.00809275 36.624 0.139668 35.6545 0.438596C34.7928 0.70233 33.9885 1.12719 33.284 1.6908C32.6314 2.21901 32.0988 2.88104 31.7217 3.63261C31.3395 4.40646 31.1457 5.26033 31.1562 6.12403C31.1489 6.99901 31.3424 7.86393 31.7217 8.65174C32.097 9.4259 32.6291 10.1129 33.284 10.6687C33.9859 11.256 34.7894 11.7086 35.6545 12.0039C36.6175 12.335 37.6296 12.4989 38.6475 12.4886H44.8889V9.27913H38.6475C38.1564 9.28291 37.6677 9.21031 37.1988 9.06393C36.7777 8.93481 36.3838 8.72919 36.0367 8.45728C35.5479 8.05897 35.2074 7.50655 35.0706 6.88961C34.9337 6.27268 35.0084 5.62741 35.2827 5.05848C35.467 4.68876 35.7265 4.36198 36.0445 4.09928Z" fill="#8662E1"/>
<path d="M76.2686 0.000610352L68.8858 8.3641V12.4888H65.02V8.34594L60.0852 2.9172L62.9981 0.723926L65.3532 3.472C65.4538 3.5835 65.583 3.73126 65.7431 3.91276C65.9058 4.09163 66.0736 4.28087 66.2466 4.4805C66.4196 4.68012 66.5798 4.86679 66.7295 5.04046C66.8793 5.21416 66.9826 5.34639 67.0446 5.43193C67.1685 5.25825 67.3493 5.02231 67.5843 4.72417C67.8193 4.42606 68.1601 4.00086 68.6069 3.45386L71.4345 0.000610352H76.2686Z" fill="white"/>
<path d="M62.5901 12.4888H56.7721L53.0149 9.20408C52.3719 8.64412 51.8795 8.20858 51.5378 7.89745C51.1969 7.58636 50.9215 7.32451 50.7114 7.11191C50.7217 7.39971 50.7346 7.69523 50.7476 7.99857C50.7605 8.30449 50.7657 8.60522 50.7657 8.90339V12.4888H46.8999V0.000610352H50.7657V2.89385C50.7657 3.28016 50.7605 3.65866 50.7476 4.032C50.7347 4.40534 50.7166 4.75532 50.6908 5.07938C50.9387 4.8538 51.2399 4.5764 51.5946 4.24716C51.9457 3.91791 52.4071 3.51693 52.9787 3.04423L56.5681 0.000610352H62.1459L59.3235 2.07982L54.1692 5.88044L54.8612 6.4223L62.5901 12.4888Z" fill="#8662E1"/>
<path d="M83.0885 0.000610352V6.81377C83.0885 10.5963 80.4984 12.4879 75.3183 12.4888H70.6753L73.5081 9.27927H75.3183C75.9372 9.28772 76.5558 9.24349 77.1673 9.14705C77.5946 9.08741 78.0057 8.94192 78.3758 8.71928C78.6659 8.53649 78.8931 8.26859 79.0265 7.95187C79.1671 7.58951 79.2339 7.20251 79.2228 6.81378V0.000610352H83.0885Z" fill="white"/>
</svg>
