<svg width="12" height="12" viewBox="0 0 12 12" fill="none" xmlns="http://www.w3.org/2000/svg">
    <path d="M6.00349 12C6.60454 12 7.10775 11.4813 7.10775 10.928V7.08934H10.9167C11.4968 7.08934 12 6.59135 12 5.99654C12 5.40173 11.4968 4.90375 10.9167 4.90375H7.10775V1.06513C7.10775 0.491066 6.60454 0 6.00349 0C5.40245 0 4.89924 0.491066 4.89924 1.06513V4.90375H1.08328C0.531159 4.90375 0 5.40173 0 5.99654C0 6.59135 0.531159 7.08934 1.08328 7.08934H4.89924V10.928C4.89924 11.4813 5.40245 12 6.00349 12Z" fill="#DFE5F2"/>
</svg>
