<svg width="14" height="14" viewBox="0 0 14 14" fill="none" xmlns="http://www.w3.org/2000/svg">
<path fill-rule="evenodd" clip-rule="evenodd" d="M13.9976 4.46273H11.0335C9.65406 4.46516 8.5366 5.55469 8.53411 6.89962C8.53225 8.24759 9.65095 9.34198 11.0335 9.3438H14.0001V9.55794C14.0001 11.9093 12.5746 13.2997 10.1624 13.2997H3.83904C1.42618 13.2997 0.000732422 11.9093 0.000732422 9.55794V4.43664C0.000732422 2.08529 1.42618 0.700317 3.83904 0.700317H10.1599C12.5721 0.700317 13.9976 2.08529 13.9976 4.43664V4.46273ZM3.31764 4.45771H7.26546H7.26795H7.27292C7.56847 4.4565 7.80739 4.22172 7.80614 3.93296C7.8049 3.64481 7.56349 3.41185 7.26795 3.41307H3.31764C3.02397 3.41428 2.78567 3.64663 2.78442 3.93357C2.78318 4.22172 3.0221 4.4565 3.31764 4.45771Z" fill="#948AC5"/>
</svg>
